<?xml version="1.0" encoding="utf-8"?>
<!-- Generator: Adobe Illustrator 25.2.3, SVG Export Plug-In . SVG Version: 6.00 Build 0)  -->
<svg version="1.1" xmlns="http://www.w3.org/2000/svg" xmlns:xlink="http://www.w3.org/1999/xlink" x="0px" y="0px"
	 viewBox="0 0 64 64" enable-background="new 0 0 64 64" xml:space="preserve">
<g id="_x30_1">
</g>
<g id="_x30_2">
</g>
<g id="_x30_3">
</g>
<g id="_x30_4">
</g>
<g id="_x30_5">
</g>
<g id="_x30_6">
</g>
<g id="_x30_7">
</g>
<g id="_x30_8">
</g>
<g id="_x30_9">
</g>
<g id="_x31_0">
</g>
<g id="_x31_1">
</g>
<g id="_x31_2">
</g>
<g id="_x31_3">
</g>
<g id="_x31_4">
</g>
<g id="_x31_5">
</g>
<g id="_x31_6">
</g>
<g id="_x31_7">
</g>
<g id="_x31_8">
</g>
<g id="_x31_9">
</g>
<g id="_x32_0">
	<g>
		<g>
			<linearGradient id="SVGID_1_" gradientUnits="userSpaceOnUse" x1="26.8949" y1="0.1578" x2="26.8949" y2="62.7456">
				<stop  offset="0" style="stop-color:#38D6A4"/>
				<stop  offset="0.171" style="stop-color:#32CAAE"/>
				<stop  offset="0.4784" style="stop-color:#22ABC8"/>
				<stop  offset="0.8841" style="stop-color:#0879F2"/>
				<stop  offset="0.9987" style="stop-color:#0069FF"/>
			</linearGradient>
			<path fill="url(#SVGID_1_)" d="M51.397,64H25.934l0.083-1.758c0.155-3.297-2.894-4.791-2.925-4.806
				c-0.372-0.185-2.442-0.94-9.435,1.075l-0.086,0.022c-0.305,0.069-3.023,0.637-4.759-1.199c-1.296-1.37-1.528-3.525-0.69-6.408
				L8.205,50.7c0.171-0.447-0.125-0.644-0.268-0.74c-1.242-0.827-1.347-1.858-1.3-2.399c0.02-0.228,0.072-0.442,0.148-0.641
				c-0.143-0.135-0.275-0.286-0.389-0.455c-0.427-0.631-0.539-1.395-0.317-2.149c0.154-0.523,0.355-0.926,0.509-1.225
				c-2.42-0.715-3.807-1.819-4.129-3.283c-0.192-0.874-0.062-2.212,1.645-3.622c2.257-1.865,3.57-4.194,4.151-5.416
				c0.13-0.272,0.18-0.575,0.145-0.878c-0.405-3.508,1.036-9.06,5.168-13.552c2.998-3.259,8.492-7.068,17.599-6.794l-0.106,3.356
				c-7.847-0.252-12.499,2.969-15.022,5.711c-3.396,3.691-4.611,8.235-4.304,10.894c0.108,0.93-0.048,1.865-0.448,2.706
				c-0.7,1.473-2.288,4.283-5.044,6.562c-0.18,0.148-0.299,0.268-0.376,0.357c0.276,0.205,0.888,0.538,2.001,0.832
				c1.183,0.312,2.052,1.286,2.213,2.481c0.127,0.946-0.228,1.635-0.486,2.139c-0.009,0.018-0.018,0.035-0.026,0.052
				c0.114,0.026,0.23,0.047,0.334,0.058l6.284,0.673l-5.611,2.46c1.313,1.409,1.119,3.182,0.743,4.125
				c-0.503,1.778-0.37,2.752-0.073,3.071c0.322,0.346,1.166,0.313,1.544,0.244c5.678-1.631,9.64-1.916,11.777-0.846
				c0.159,0.075,4.012,1.966,4.707,6.223h17.274l-2.876-7.644c-0.634-1.122-1.893-4.985,4.49-12.375l2.54,2.194
				c-4.805,5.564-4.241,8.11-4.106,8.51l0.199,0.205l-0.036,0.136L51.397,64z M46.552,51.283L46.552,51.283z"/>
		</g>
		<g>
			<linearGradient id="SVGID_2_" gradientUnits="userSpaceOnUse" x1="44.2646" y1="0.1578" x2="44.2646" y2="62.7456">
				<stop  offset="0" style="stop-color:#38D6A4"/>
				<stop  offset="0.171" style="stop-color:#32CAAE"/>
				<stop  offset="0.4784" style="stop-color:#22ABC8"/>
				<stop  offset="0.8841" style="stop-color:#0879F2"/>
				<stop  offset="0.9987" style="stop-color:#0069FF"/>
			</linearGradient>
			<path fill="url(#SVGID_2_)" d="M45.823,19.628h-3.118v-1.427c-1.172-0.217-2.284-0.679-3.269-1.356l-1.01,1.01l-2.204-2.204
				l1.01-1.01c-0.677-0.984-1.138-2.097-1.355-3.269H34.45V8.255h1.427c0.217-1.172,0.678-2.284,1.355-3.269l-1.01-1.01l2.204-2.204
				l1.01,1.01c0.985-0.677,2.097-1.138,3.269-1.355V0h3.118v1.427c1.172,0.217,2.284,0.678,3.269,1.355l1.01-1.01l2.204,2.204
				l-1.01,1.01c0.677,0.984,1.138,2.097,1.355,3.269h1.427v3.118h-1.427c-0.217,1.173-0.678,2.286-1.355,3.269l1.01,1.01
				l-2.204,2.204l-1.01-1.01c-0.985,0.677-2.097,1.139-3.269,1.356V19.628z M44.048,18.286h0.432v-1.263l0.597-0.068
				c1.338-0.15,2.605-0.675,3.662-1.518l0.469-0.374l0.894,0.894l0.306-0.305l-0.894-0.894l0.374-0.469
				c0.842-1.056,1.368-2.322,1.518-3.662l0.068-0.597h1.263V9.598h-1.263l-0.068-0.597c-0.15-1.339-0.675-2.606-1.518-3.662
				L49.514,4.87l0.894-0.894l-0.306-0.306l-0.894,0.894l-0.469-0.374c-1.058-0.842-2.324-1.368-3.662-1.518L44.48,2.606V1.343
				h-0.432v1.263l-0.597,0.068c-1.338,0.15-2.604,0.675-3.662,1.518L39.32,4.565l-0.894-0.894l-0.306,0.306l0.894,0.894
				l-0.374,0.469c-0.842,1.058-1.368,2.324-1.518,3.662l-0.068,0.597h-1.263v0.432h1.263l0.068,0.597
				c0.15,1.339,0.675,2.605,1.518,3.662l0.374,0.469l-0.894,0.894l0.306,0.305l0.894-0.894l0.469,0.374
				c1.058,0.843,2.324,1.368,3.662,1.518l0.597,0.068V18.286z"/>
		</g>
		<g>
			<linearGradient id="SVGID_3_" gradientUnits="userSpaceOnUse" x1="44.2643" y1="0.1578" x2="44.2643" y2="62.7456">
				<stop  offset="0" style="stop-color:#38D6A4"/>
				<stop  offset="0.171" style="stop-color:#32CAAE"/>
				<stop  offset="0.4784" style="stop-color:#22ABC8"/>
				<stop  offset="0.8841" style="stop-color:#0879F2"/>
				<stop  offset="0.9987" style="stop-color:#0069FF"/>
			</linearGradient>
			<path fill="url(#SVGID_3_)" d="M44.265,16.228c-3.537,0-6.414-2.877-6.414-6.413S40.728,3.4,44.265,3.4
				c3.537,0,6.413,2.878,6.413,6.414S47.801,16.228,44.265,16.228z M44.265,4.407c-2.981,0-5.407,2.426-5.407,5.407
				s2.426,5.406,5.407,5.406s5.406-2.425,5.406-5.406S47.246,4.407,44.265,4.407z"/>
		</g>
		<linearGradient id="SVGID_4_" gradientUnits="userSpaceOnUse" x1="32.1423" y1="0.1578" x2="32.1423" y2="62.7456">
			<stop  offset="0" style="stop-color:#38D6A4"/>
			<stop  offset="0.171" style="stop-color:#32CAAE"/>
			<stop  offset="0.4784" style="stop-color:#22ABC8"/>
			<stop  offset="0.8841" style="stop-color:#0879F2"/>
			<stop  offset="0.9987" style="stop-color:#0069FF"/>
		</linearGradient>
		<path fill="url(#SVGID_4_)" d="M44.792,28.332L44.792,28.332l-0.912-2.367c-0.973,0.375-2.077,0.055-2.695-0.784
			c-0.566-0.769-1.222-1.453-1.947-2.042c-0.794-0.645-1.076-1.731-0.661-2.666l0.025-0.056l-2.318-1.029l-0.025,0.056
			c-0.415,0.935-1.409,1.455-2.42,1.299c-0.923-0.142-1.87-0.17-2.821-0.073c-1.037,0.105-2.015-0.5-2.39-1.472l-2.367,0.912
			c0.375,0.973,0.055,2.077-0.784,2.695c-0.769,0.566-1.453,1.222-2.042,1.947c-0.645,0.794-1.731,1.076-2.666,0.661l-0.056-0.025
			l-1.029,2.318l0.056,0.025c0.935,0.415,1.455,1.409,1.299,2.42c-0.142,0.923-0.17,1.87-0.074,2.821
			c0.105,1.037-0.5,2.015-1.472,2.39l0.912,2.367c0.973-0.375,2.077-0.055,2.695,0.784c0.566,0.769,1.222,1.453,1.947,2.042
			c0.794,0.645,1.076,1.731,0.661,2.666l-0.025,0.056l2.318,1.029l0.025-0.056c0.415-0.935,1.409-1.455,2.42-1.299
			c0.923,0.142,1.87,0.17,2.821,0.073c1.037-0.105,2.015,0.5,2.39,1.472l2.367-0.912c-0.375-0.973-0.055-2.077,0.784-2.695
			c0.769-0.566,1.453-1.222,2.042-1.947c0.645-0.794,1.731-1.076,2.666-0.661l0.056,0.025l1.029-2.318l-0.056-0.025
			c-0.935-0.415-1.455-1.409-1.299-2.42c0.142-0.923,0.17-1.87,0.074-2.821C43.215,29.685,43.819,28.707,44.792,28.332z
			 M34.941,39.886c-4.21,1.47-8.902-0.612-10.638-4.72c-1.916-4.536,0.391-9.735,5.04-11.358c4.21-1.47,8.902,0.612,10.638,4.72
			C41.897,33.064,39.59,38.263,34.941,39.886z"/>
		<linearGradient id="SVGID_5_" gradientUnits="userSpaceOnUse" x1="55.4739" y1="0.1578" x2="55.4739" y2="62.7456">
			<stop  offset="0" style="stop-color:#38D6A4"/>
			<stop  offset="0.171" style="stop-color:#32CAAE"/>
			<stop  offset="0.4784" style="stop-color:#22ABC8"/>
			<stop  offset="0.8841" style="stop-color:#0879F2"/>
			<stop  offset="0.9987" style="stop-color:#0069FF"/>
		</linearGradient>
		<path fill="url(#SVGID_5_)" d="M61.607,28.66v-1.19h-1.152c-0.031-0.26-0.082-0.515-0.151-0.761l1.064-0.441l-0.456-1.1
			l-1.064,0.441c-0.127-0.226-0.272-0.442-0.432-0.645l0.815-0.815l-0.842-0.842l-0.815,0.815c-0.203-0.16-0.418-0.304-0.645-0.432
			l0.441-1.064l-1.1-0.456l-0.441,1.064c-0.247-0.069-0.501-0.12-0.761-0.151v-1.152h-1.19v1.152
			c-0.26,0.031-0.515,0.082-0.761,0.151l-0.441-1.064l-1.1,0.456l0.441,1.064c-0.226,0.127-0.442,0.272-0.645,0.432l-0.815-0.815
			l-0.842,0.842l0.815,0.815c-0.16,0.203-0.304,0.418-0.432,0.645l-1.064-0.441l-0.456,1.1l1.064,0.441
			c-0.069,0.247-0.12,0.501-0.151,0.761h-1.152v1.19h1.152c0.031,0.26,0.082,0.515,0.151,0.761l-1.064,0.441l0.456,1.1l1.064-0.441
			c0.127,0.226,0.272,0.442,0.432,0.645l-0.815,0.815l0.842,0.842l0.815-0.815c0.203,0.16,0.418,0.304,0.645,0.432l-0.441,1.064
			l1.1,0.456l0.441-1.064c0.247,0.069,0.501,0.12,0.761,0.151v1.152h1.19v-1.152c0.26-0.031,0.515-0.082,0.761-0.151l0.441,1.064
			l1.1-0.456l-0.441-1.064c0.226-0.127,0.442-0.272,0.645-0.432l0.815,0.815l0.842-0.842l-0.815-0.815
			c0.16-0.203,0.304-0.418,0.432-0.645l1.064,0.441l0.456-1.1l-1.064-0.441c0.069-0.247,0.12-0.501,0.151-0.761H61.607z
			 M55.333,23.911c0.768,0,1.39,0.622,1.39,1.39c0,0.767-0.622,1.39-1.39,1.39c-0.767,0-1.39-0.622-1.39-1.39
			C53.944,24.533,54.566,23.911,55.333,23.911z M51.446,27.325c0-0.768,0.622-1.39,1.39-1.39c0.767,0,1.39,0.622,1.39,1.39
			c0,0.767-0.622,1.39-1.39,1.39C52.068,28.715,51.446,28.092,51.446,27.325z M53.886,31.777c-0.767,0-1.39-0.622-1.39-1.39
			c0-0.767,0.622-1.39,1.39-1.39s1.39,0.622,1.39,1.39C55.276,31.155,54.654,31.777,53.886,31.777z M54.718,28.065
			c0-0.418,0.339-0.756,0.756-0.756c0.418,0,0.756,0.339,0.756,0.756c0,0.418-0.339,0.756-0.756,0.756
			C55.056,28.821,54.718,28.482,54.718,28.065z M57.107,31.777c-0.767,0-1.39-0.622-1.39-1.39c0-0.767,0.622-1.39,1.39-1.39
			c0.767,0,1.39,0.622,1.39,1.39C58.497,31.155,57.874,31.777,57.107,31.777z M58.113,28.715c-0.767,0-1.39-0.622-1.39-1.39
			c0-0.768,0.622-1.39,1.39-1.39c0.768,0,1.39,0.622,1.39,1.39C59.502,28.092,58.88,28.715,58.113,28.715z"/>
	</g>
</g>
</svg>
